<svg width="24" height="24" viewBox="0 0 24 24" fill="none" xmlns="http://www.w3.org/2000/svg">
<path d="M20.9999 13.5C20.9999 13.5 22.4699 13.845 23.2499 13.5C23.1201 14.0474 22.7938 14.5281 22.3329 14.8507C21.872 15.1733 21.3087 15.3154 20.7499 15.25C19.6249 15.185 20.9999 13.5 20.9999 13.5Z" fill="#B0EB7D" stroke="#45413C" stroke-width="0.5" stroke-linecap="round" stroke-linejoin="round"/>
<path opacity="0.15" d="M3.5 18.25C3.5 18.3485 3.74572 18.446 4.22314 18.537C4.70056 18.628 5.40033 18.7107 6.28249 18.7803C7.16464 18.85 8.21191 18.9052 9.36451 18.9429C10.5171 18.9806 11.7524 19 13 19C14.2476 19 15.4829 18.9806 16.6355 18.9429C17.7881 18.9052 18.8354 18.85 19.7175 18.7803C20.5997 18.7107 21.2994 18.628 21.7769 18.537C22.2543 18.446 22.5 18.3485 22.5 18.25C22.5 18.1515 22.2543 18.054 21.7769 17.963C21.2994 17.872 20.5997 17.7893 19.7175 17.7197C18.8354 17.65 17.7881 17.5948 16.6355 17.5571C15.4829 17.5194 14.2476 17.5 13 17.5C11.7524 17.5 10.5171 17.5194 9.36451 17.5571C8.21191 17.5948 7.16464 17.65 6.28249 17.7197C5.40033 17.7893 4.70056 17.872 4.22314 17.963C3.74572 18.054 3.5 18.1515 3.5 18.25Z" fill="#45413C"/>
<path d="M8.75 8.75C8.75 8.25754 8.653 7.76991 8.46455 7.31494C8.27609 6.85997 7.99987 6.44657 7.65165 6.09835C7.30343 5.75013 6.89003 5.47391 6.43506 5.28545C5.98009 5.097 5.49246 5 5 5C2.93 5 0.75 7.18 0.75 9.25C0.75 11.32 2.93 12.5 5 12.5H5.25C5.25 13.4283 5.61875 14.3185 6.27513 14.9749C6.9315 15.6313 7.82174 16 8.75 16V8.75Z" fill="#B0EB7D"/>
<path d="M5.04 6.41C5.93759 6.41054 6.8053 6.73258 7.48589 7.31779C8.16649 7.90299 8.61494 8.71263 8.75 9.6V8.75C8.75 8.25754 8.653 7.76991 8.46455 7.31494C8.27609 6.85997 7.99987 6.44657 7.65165 6.09835C7.30343 5.75013 6.89003 5.47391 6.43506 5.28545C5.98009 5.097 5.49246 5 5 5C2.93 5 0.75 7.18 0.75 9.25C0.750198 9.51221 0.787226 9.77309 0.86 10.025C1.24 8.165 3.185 6.41 5.04 6.41Z" fill="#B0EB7D"/>
<path d="M8.75 8.75C8.75 8.25754 8.653 7.76991 8.46455 7.31494C8.27609 6.85997 7.99987 6.44657 7.65165 6.09835C7.30343 5.75013 6.89003 5.47391 6.43506 5.28545C5.98009 5.097 5.49246 5 5 5C2.93 5 0.75 7.18 0.75 9.25C0.75 11.32 2.93 12.5 5 12.5H5.25C5.25 13.4283 5.61875 14.3185 6.27513 14.9749C6.9315 15.6313 7.82174 16 8.75 16V8.75Z" stroke="#45413C" stroke-width="0.5" stroke-linecap="round" stroke-linejoin="round"/>
<path d="M20.79 15.655C20.972 14.8603 21.0427 14.0442 21 13.23C20.78 9.465 18.065 6.415 14.795 6.255C11.065 6.075 8 9.5 8 13.75C8.00044 14.3908 8.07085 15.0295 8.21 15.655C8.23052 15.7547 8.27832 15.8468 8.34805 15.9209C8.41779 15.9951 8.50674 16.0484 8.605 16.075C15.825 17.82 20.895 15.955 20.395 16.075C20.4933 16.0484 20.5822 15.9951 20.6519 15.9209C20.7217 15.8468 20.7695 15.7547 20.79 15.655Z" fill="#FFD93B" stroke="#45413C" stroke-width="0.5" stroke-linecap="round" stroke-linejoin="round"/>
<path d="M21 14.05V13.23C20.78 9.465 18.065 6.415 14.795 6.255C11.065 6.075 8 9.5 8 13.75V13.825C9.08 14.415 11.215 15.25 14.715 15.25C16.873 15.3196 19.0195 14.9098 21 14.05Z" fill="#C1875D"/>
<path d="M8.16 13.91C8.835 10.465 11.56 7.91 14.78 8.07C17.78 8.215 20.28 10.785 20.87 14.105L21 14.05V13.23C20.78 9.465 18.065 6.415 14.795 6.255C11.065 6.075 8 9.5 8 13.75V13.825L8.16 13.91Z" fill="#C1875D"/>
<path d="M21 14.05V13.23C20.78 9.465 18.065 6.415 14.795 6.255C11.065 6.075 8 9.5 8 13.75V13.825C9.08 14.415 11.215 15.25 14.715 15.25C16.873 15.3196 19.0195 14.9098 21 14.05Z" stroke="#45413C" stroke-width="0.5" stroke-linecap="round" stroke-linejoin="round"/>
<path d="M9.49993 12.75C8.9695 12.75 8.46079 12.9607 8.08572 13.3358C7.71065 13.7109 7.49993 14.2196 7.49993 14.75L7.28993 17.46C7.2844 17.5289 7.29323 17.5983 7.31587 17.6636C7.33851 17.729 7.37446 17.789 7.42145 17.8397C7.46844 17.8905 7.52545 17.9309 7.58888 17.9585C7.65231 17.9861 7.72077 18.0002 7.78993 18H10.7899C10.9159 18.0004 11.0374 17.9533 11.1301 17.868C11.2228 17.7827 11.2799 17.6656 11.2899 17.54L11.4999 14.75C11.4999 14.2196 11.2892 13.7109 10.9141 13.3358C10.5391 12.9607 10.0304 12.75 9.49993 12.75Z" fill="#B0EB7D"/>
<path d="M9.39492 14.305C9.86176 14.3085 10.3136 14.47 10.6769 14.7633C11.0401 15.0566 11.2932 15.4644 11.3949 15.92L11.4999 14.75C11.4999 14.2196 11.2892 13.7109 10.9141 13.3358C10.5391 12.9607 10.0304 12.75 9.49992 12.75C8.96949 12.75 8.46078 12.9607 8.08571 13.3358C7.71064 13.7109 7.49992 14.2196 7.49992 14.75L7.41992 15.75C7.5521 15.3301 7.81502 14.9634 8.17031 14.7034C8.52561 14.4435 8.95469 14.3039 9.39492 14.305Z" fill="#B0EB7D"/>
<path d="M21.71 17.46L21.5 14.75C21.5 14.2196 21.2893 13.7109 20.9142 13.3358C20.5391 12.9607 20.0304 12.75 19.5 12.75C18.9696 12.75 18.4609 12.9607 18.0858 13.3358C17.7107 13.7109 17.5 14.2196 17.5 14.75L17.715 17.54C17.7251 17.6656 17.7822 17.7827 17.8749 17.868C17.9676 17.9533 18.089 18.0004 18.215 18H21.215C21.2837 17.9995 21.3517 17.9849 21.4145 17.957C21.4773 17.9291 21.5337 17.8886 21.5802 17.8379C21.6266 17.7872 21.6621 17.7275 21.6845 17.6625C21.7068 17.5975 21.7155 17.5285 21.71 17.46Z" fill="#B0EB7D"/>
<path d="M19.605 14.305C19.1382 14.3085 18.6863 14.47 18.3231 14.7633C17.9598 15.0566 17.7067 15.4644 17.605 15.92L17.5 14.75C17.5 14.2196 17.7107 13.7109 18.0858 13.3358C18.4609 12.9607 18.9696 12.75 19.5 12.75C20.0304 12.75 20.5391 12.9607 20.9142 13.3358C21.2893 13.7109 21.5 14.2196 21.5 14.75L21.58 15.75C21.4478 15.3301 21.1849 14.9634 20.8296 14.7034C20.4743 14.4435 20.0452 14.3039 19.605 14.305Z" fill="#B0EB7D"/>
<path d="M9.49993 12.75C8.9695 12.75 8.46079 12.9607 8.08572 13.3358C7.71065 13.7109 7.49993 14.2196 7.49993 14.75L7.28993 17.46C7.2844 17.5289 7.29323 17.5983 7.31587 17.6636C7.33851 17.729 7.37446 17.789 7.42145 17.8397C7.46844 17.8905 7.52545 17.9309 7.58888 17.9585C7.65231 17.9861 7.72077 18.0002 7.78993 18H10.7899C10.9159 18.0004 11.0374 17.9533 11.1301 17.868C11.2228 17.7827 11.2799 17.6656 11.2899 17.54L11.4999 14.75C11.4999 14.2196 11.2892 13.7109 10.9141 13.3358C10.5391 12.9607 10.0304 12.75 9.49993 12.75ZM21.7099 17.46L21.4999 14.75C21.4999 14.2196 21.2892 13.7109 20.9141 13.3358C20.5391 12.9607 20.0304 12.75 19.4999 12.75C18.9695 12.75 18.4608 12.9607 18.0857 13.3358C17.7106 13.7109 17.4999 14.2196 17.4999 14.75L17.7149 17.54C17.725 17.6656 17.7821 17.7827 17.8748 17.868C17.9675 17.9533 18.089 18.0004 18.2149 18H21.2149C21.2837 17.9995 21.3516 17.9849 21.4144 17.957C21.4773 17.9291 21.5337 17.8886 21.5801 17.8379C21.6266 17.7872 21.6621 17.7275 21.6844 17.6625C21.7067 17.5975 21.7154 17.5285 21.7099 17.46Z" stroke="#45413C" stroke-width="0.5" stroke-linecap="round" stroke-linejoin="round"/>
<path d="M4.25 7.71C4.25 7.85322 4.30689 7.99057 4.40816 8.09184C4.50943 8.19311 4.64678 8.25 4.79 8.25C4.93322 8.25 5.07057 8.19311 5.17184 8.09184C5.27311 7.99057 5.33 7.85322 5.33 7.71C5.33 7.56678 5.27311 7.42943 5.17184 7.32816C5.07057 7.22689 4.93322 7.17 4.79 7.17C4.64678 7.17 4.50943 7.22689 4.40816 7.32816C4.30689 7.42943 4.25 7.56678 4.25 7.71Z" fill="#45413C" stroke="#45413C" stroke-width="0.5" stroke-linecap="round" stroke-linejoin="round"/>
<path d="M7.24991 9.655C7.2509 9.78596 7.21291 9.91425 7.14077 10.0235C7.06863 10.1328 6.9656 10.2182 6.8448 10.2688C6.724 10.3194 6.59089 10.3329 6.46239 10.3075C6.3339 10.2822 6.21584 10.2193 6.12324 10.1267C6.03064 10.0341 5.96768 9.91601 5.94237 9.78752C5.91707 9.65903 5.93056 9.52592 5.98113 9.40511C6.0317 9.28431 6.11707 9.18129 6.22637 9.10915C6.33567 9.03701 6.46396 8.99902 6.59491 9C6.76823 9.00131 6.93407 9.07074 7.05662 9.19329C7.17918 9.31585 7.24861 9.48169 7.24991 9.655Z" fill="#C1875D"/>
<path d="M1.91504 11.5C1.91504 11.5 3.91504 11.795 4.50004 10.235M10.465 7.87C10.465 7.87 11.625 9.78 12.25 9.81C12.875 9.84 13.595 8.84 14.5 8.84M14.5 8.84C15.405 8.84 16.375 10.34 16.94 10.25C17.505 10.16 19.16 8.545 19.16 8.545M14.5 8.84V6.255" stroke="#45413C" stroke-width="0.5" stroke-linecap="round" stroke-linejoin="round"/>
<path d="M12.2499 9.81C11.5709 10.9307 11.1618 12.194 11.0549 13.5M16.9399 10.25C17.4513 11.2943 17.7698 12.4224 17.8799 13.58M11.3299 13.94C13.4097 14.3237 15.539 14.3575 17.6299 14.04" stroke="#45413C" stroke-width="0.5" stroke-linecap="round" stroke-linejoin="round"/>
</svg>
